<?xml version="1.0" encoding="UTF-8" standalone="no"?>
<!-- Created with Inkscape (http://www.inkscape.org/) -->

<svg
   xmlns:dc="http://purl.org/dc/elements/1.1/"
   xmlns:cc="http://creativecommons.org/ns#"
   xmlns:rdf="http://www.w3.org/1999/02/22-rdf-syntax-ns#"
   xmlns:svg="http://www.w3.org/2000/svg"
   xmlns="http://www.w3.org/2000/svg"
   xmlns:xlink="http://www.w3.org/1999/xlink"
   xmlns:sodipodi="http://sodipodi.sourceforge.net/DTD/sodipodi-0.dtd"
   xmlns:inkscape="http://www.inkscape.org/namespaces/inkscape"
   sodipodi:docname="ATC logo TRACED.svg"
   inkscape:version="0.92.2 5c3e80d, 2017-08-06"
   version="1.1"
   id="svg2"
   height="62.000004"
   width="224.99156"
   inkscape:export-filename="/Users/williamentriken/Desktop/atc.png"
   inkscape:export-xdpi="95.999992"
   inkscape:export-ydpi="95.999992">
  <sodipodi:namedview
     id="base"
     pagecolor="#ffffff"
     bordercolor="#666666"
     borderopacity="1.0"
     inkscape:pageopacity="0.0"
     inkscape:pageshadow="2"
     inkscape:zoom="5.6568543"
     inkscape:cx="78.948528"
     inkscape:cy="29.503218"
     inkscape:document-units="px"
     inkscape:current-layer="layer3"
     showgrid="false"
     inkscape:window-width="1932"
     inkscape:window-height="1019"
     inkscape:window-x="1"
     inkscape:window-y="0"
     inkscape:window-maximized="0"
     fit-margin-top="0"
     fit-margin-left="0"
     fit-margin-right="0"
     fit-margin-bottom="0"
     units="px" />
  <defs
     id="defs4">
    <linearGradient
       id="linearGradient4246">
      <stop
         style="stop-color:#f0fafa;stop-opacity:1;"
         offset="0"
         id="stop4248" />
      <stop
         style="stop-color:#b4b4b4;stop-opacity:0;"
         offset="1"
         id="stop4250" />
    </linearGradient>
    <linearGradient
       id="linearGradient4186">
      <stop
         style="stop-color:#aabed2;stop-opacity:1;"
         offset="0"
         id="stop4188" />
      <stop
         style="stop-color:#326496;stop-opacity:1;"
         offset="1"
         id="stop4190" />
    </linearGradient>
    <linearGradient
       id="linearGradient3808">
      <stop
         style="stop-color:#ffffff;stop-opacity:1;"
         offset="0"
         id="stop3810" />
      <stop
         style="stop-color:#ededed;stop-opacity:1;"
         offset="1"
         id="stop3812" />
    </linearGradient>
    <linearGradient
       id="linearGradient3858">
      <stop
         style="stop-color:#2d5b8f;stop-opacity:1;"
         offset="0"
         id="stop3860" />
      <stop
         style="stop-color:#1b487a;stop-opacity:1;"
         offset="1"
         id="stop3862" />
    </linearGradient>
    <linearGradient
       inkscape:collect="always"
       xlink:href="#linearGradient3858"
       id="linearGradient3864"
       x1="339.2869"
       y1="413.06104"
       x2="339.2869"
       y2="460.58182"
       gradientUnits="userSpaceOnUse"
       gradientTransform="matrix(1.0006711,0,0,1,1.2792471,-73.571429)" />
    <linearGradient
       inkscape:collect="always"
       xlink:href="#linearGradient3858"
       id="linearGradient4158"
       gradientUnits="userSpaceOnUse"
       gradientTransform="matrix(1.0006711,0,0,1,223.27925,-363.57143)"
       x1="339.2869"
       y1="413.06104"
       x2="339.2869"
       y2="460.58182" />
    <linearGradient
       inkscape:collect="always"
       xlink:href="#linearGradient3808"
       id="linearGradient4160"
       gradientUnits="userSpaceOnUse"
       gradientTransform="translate(222,-290)"
       x1="286.25"
       y1="343.57645"
       x2="286.25"
       y2="377.86484" />
    <radialGradient
       inkscape:collect="always"
       xlink:href="#linearGradient4186"
       id="radialGradient4192"
       cx="729.33704"
       cy="272.88364"
       fx="729.33704"
       fy="272.88364"
       r="362"
       gradientTransform="matrix(0.34242422,-0.66793549,0.81201115,0.3728785,-76.013532,603.7449)"
       gradientUnits="userSpaceOnUse" />
    <linearGradient
       inkscape:collect="always"
       xlink:href="#linearGradient4246"
       id="linearGradient4252"
       x1="55.15942"
       y1="210.25362"
       x2="89.028984"
       y2="241.74638"
       gradientUnits="userSpaceOnUse" />
    <linearGradient
       inkscape:collect="always"
       xlink:href="#linearGradient4246"
       id="linearGradient4284"
       gradientUnits="userSpaceOnUse"
       x1="55.15942"
       y1="210.25362"
       x2="89.028984"
       y2="241.74638" />
    <linearGradient
       inkscape:collect="always"
       xlink:href="#linearGradient4246"
       id="linearGradient4306"
       gradientUnits="userSpaceOnUse"
       x1="55.15942"
       y1="210.25362"
       x2="89.028984"
       y2="241.74638" />
    <linearGradient
       inkscape:collect="always"
       xlink:href="#linearGradient4246"
       id="linearGradient4308"
       gradientUnits="userSpaceOnUse"
       x1="55.15942"
       y1="210.25362"
       x2="89.028984"
       y2="241.74638" />
    <linearGradient
       inkscape:collect="always"
       xlink:href="#linearGradient4246"
       id="linearGradient4017"
       gradientUnits="userSpaceOnUse"
       x1="55.15942"
       y1="210.25362"
       x2="89.028984"
       y2="241.74638" />
    <linearGradient
       inkscape:collect="always"
       xlink:href="#linearGradient4246"
       id="linearGradient4019"
       gradientUnits="userSpaceOnUse"
       x1="55.15942"
       y1="210.25362"
       x2="89.028984"
       y2="241.74638" />
    <linearGradient
       inkscape:collect="always"
       xlink:href="#linearGradient4246"
       id="linearGradient4021"
       gradientUnits="userSpaceOnUse"
       x1="55.15942"
       y1="210.25362"
       x2="89.028984"
       y2="241.74638" />
    <linearGradient
       inkscape:collect="always"
       xlink:href="#linearGradient4246"
       id="linearGradient4023"
       gradientUnits="userSpaceOnUse"
       x1="55.15942"
       y1="210.25362"
       x2="89.028984"
       y2="241.74638" />
    <linearGradient
       inkscape:collect="always"
       xlink:href="#linearGradient4246"
       id="linearGradient4025"
       gradientUnits="userSpaceOnUse"
       x1="55.15942"
       y1="210.25362"
       x2="89.028984"
       y2="241.74638" />
    <linearGradient
       inkscape:collect="always"
       xlink:href="#linearGradient3858"
       id="linearGradient3920"
       gradientUnits="userSpaceOnUse"
       gradientTransform="matrix(1.0006711,0,0,1,223.27925,-363.57143)"
       x1="339.2869"
       y1="413.06104"
       x2="339.2869"
       y2="460.58182" />
    <linearGradient
       inkscape:collect="always"
       xlink:href="#linearGradient3808"
       id="linearGradient3922"
       gradientUnits="userSpaceOnUse"
       gradientTransform="translate(222,-290)"
       x1="286.25"
       y1="343.57645"
       x2="286.25"
       y2="377.86484" />
  </defs>
  <metadata
     id="metadata7">
    <rdf:RDF>
      <cc:Work
         rdf:about="">
        <dc:format>image/svg+xml</dc:format>
        <dc:type
           rdf:resource="http://purl.org/dc/dcmitype/StillImage" />
        <dc:title></dc:title>
      </cc:Work>
    </rdf:RDF>
  </metadata>
  <g
     inkscape:groupmode="layer"
     id="layer3"
     inkscape:label="Main"
     style="display:inline"
     transform="translate(-247.3281,-29.357947)">
    <g
       id="g4154"
       transform="matrix(1.0145652,0,0,1.0145652,-205.0955,-19.418743)">
      <path
         style="fill:url(#linearGradient3920);fill-opacity:1;stroke:none"
         d="m 450.92856,48.076447 h 203 c 2.77,0 5,2.23 5,5 v 36 c 0,2.77 -2.23,5 -5,5 h -203 c -2.77,0 -5,-2.23 -5,-5 v -36 c 0,-2.77 2.23,-5 5,-5 z"
         id="rect3088" />
      <path
         style="display:inline;fill:url(#linearGradient3922);fill-opacity:1;stroke:#ffffff;stroke-width:1.0059284;stroke-opacity:1"
         d="m 454.43155,53.579407 h 106.99407 c 1.662,0 3,1.338 3,3 v 28.994072 c 0,1.662 -1.338,3 -3,3 H 454.43155 c -1.662,0 -3,-1.338 -3,-3 V 56.579407 c 0,-1.662 1.338,-3 3,-3 z"
         id="rect3803" />
    </g>
    <g
       aria-label="ACLS"
       style="font-style:normal;font-variant:normal;font-weight:bold;font-stretch:normal;line-height:0%;font-family:Candara;-inkscape-font-specification:'Candara Bold';text-align:start;letter-spacing:0px;word-spacing:0px;writing-mode:lr-tb;text-anchor:start;display:inline;fill:#1e4b7d;fill-opacity:1;stroke:none"
       id="text4142">
      <path
         d="m 288.90347,66.389114 h -6.97514 q 0,-1.438621 -1.98355,-8.15219 h -10.07036 q -2.04894,6.604582 -2.04894,8.15219 h -6.56099 q 0,-0.850094 5.07877,-13.950271 5.10057,-13.100177 5.10057,-14.429812 h 8.23938 q 0,1.242446 4.59923,14.233636 4.62103,12.969393 4.62103,14.146447 z M 278.83311,54.07364 q -3.72734,-11.247406 -3.72734,-12.162893 h -0.34875 q 0,0.850095 -3.85812,12.162893 z"
         style="font-style:normal;font-variant:normal;font-weight:bold;font-stretch:normal;font-size:44.64086914px;line-height:125%;font-family:Candara;-inkscape-font-specification:'Candara Bold';text-align:start;writing-mode:lr-tb;text-anchor:start;fill:#1e4b7d;fill-opacity:1"
         id="path1126" />
      <path
         d="m 311.62616,61.223154 -0.37055,5.013379 q -3.09522,0.741108 -6.10325,0.741108 -7.47647,0 -11.39999,-4.119689 -3.90171,-4.141487 -3.90171,-10.048555 0,-6.125041 4.14148,-10.65888 4.16329,-4.533838 11.39999,-4.533838 2.65927,0 5.03518,0.610325 l -0.76291,5.035176 q -2.57208,-0.828298 -4.92619,-0.828298 -4.42485,0 -6.58278,2.811852 -2.15793,2.790054 -2.15793,6.800757 0,4.097893 2.55028,7.10592 2.57208,3.008027 7.19311,3.008027 2.70286,0 5.88527,-0.937284 z"
         style="font-style:normal;font-variant:normal;font-weight:bold;font-stretch:normal;font-size:44.64086914px;line-height:125%;font-family:Candara;-inkscape-font-specification:'Candara Bold';text-align:start;writing-mode:lr-tb;text-anchor:start;fill:#1e4b7d;fill-opacity:1"
         id="path1128" />
      <path
         d="m 334.27355,61.637303 -0.17437,4.751811 h -18.11356 q 0.26157,-5.907068 0.26157,-14.843961 0,-8.195784 -0.26157,-13.536122 h 6.12504 q -0.26157,4.947987 -0.26157,13.536122 0,6.560988 -0.28336,10.41911 6.01605,0 12.70782,-0.32696 z"
         style="font-style:normal;font-variant:normal;font-weight:bold;font-stretch:normal;font-size:44.64086914px;line-height:125%;font-family:Candara;-inkscape-font-specification:'Candara Bold';text-align:start;writing-mode:lr-tb;text-anchor:start;fill:#1e4b7d;fill-opacity:1"
         id="path1130" />
      <path
         d="m 356.22343,58.651073 q 0,8.522744 -12.25008,8.522744 -4.16329,0 -7.73804,-1.002676 l 1.06807,-4.860797 q 3.53116,1.220648 6.66997,1.220648 3.48757,0 5.01338,-0.675716 1.52581,-0.675716 1.52581,-2.266919 0,-1.656595 -1.43862,-2.790054 -1.24245,-1.002676 -5.03518,-2.615676 -3.44397,-1.482217 -5.12236,-3.226001 -2.11434,-2.201527 -2.11434,-5.427527 0,-3.749136 2.76825,-5.863474 2.79006,-2.114338 7.99961,-2.114338 4.27227,0 7.17131,0.719311 l -0.8065,4.839001 q -2.94263,-1.068068 -6.36481,-1.068068 -5.14416,0 -5.14416,2.74646 0,1.460419 1.19885,2.375905 1.04627,0.784703 4.55564,2.201528 3.72734,1.504013 5.58011,3.313189 2.46309,2.4195 2.46309,5.97246 z"
         style="font-style:normal;font-variant:normal;font-weight:bold;font-stretch:normal;font-size:44.64086914px;line-height:125%;font-family:Candara;-inkscape-font-specification:'Candara Bold';text-align:start;writing-mode:lr-tb;text-anchor:start;fill:#1e4b7d;fill-opacity:1"
         id="path1132" />
    </g>
    <g
       aria-label="Training
Center"
       transform="scale(0.93203524,1.0729208)"
       style="font-style:normal;font-variant:normal;font-weight:bold;font-stretch:normal;line-height:0%;font-family:sans-serif;-inkscape-font-specification:'Sans Bold';text-align:start;letter-spacing:0px;word-spacing:0px;writing-mode:lr-tb;text-anchor:start;display:inline;fill:#ffffff;fill-opacity:1;stroke:none"
       id="text4162">
      <path
         d="m 402.07188,33.443214 h 12.52752 v 2.649352 h -4.50663 v 10.943372 h -3.50516 V 36.092566 h -4.51573 z"
         style="font-style:normal;font-variant:normal;font-weight:bold;font-stretch:normal;font-size:18.64561272px;line-height:125%;font-family:sans-serif;-inkscape-font-specification:'Sans Bold';text-align:start;writing-mode:lr-tb;text-anchor:start;fill:#ffffff;fill-opacity:1"
         id="path1135" />
      <path
         d="m 423.83116,39.615931 q -0.4279,-0.200294 -0.8558,-0.291337 -0.4188,-0.100148 -0.8467,-0.100148 -1.2564,0 -1.93922,0.810283 -0.67372,0.801179 -0.67372,2.303389 v 4.69782 h -3.25934 V 36.839119 h 3.25934 v 1.675192 q 0.6282,-1.001474 1.43848,-1.456689 0.81939,-0.464319 1.95743,-0.464319 0.16388,0 0.35507,0.01821 0.19119,0.0091 0.55536,0.05463 z"
         style="font-style:normal;font-variant:normal;font-weight:bold;font-stretch:normal;font-size:18.64561272px;line-height:125%;font-family:sans-serif;-inkscape-font-specification:'Sans Bold';text-align:start;writing-mode:lr-tb;text-anchor:start;fill:#ffffff;fill-opacity:1"
         id="path1137" />
      <path
         d="m 430.0403,42.44737 q -1.01968,0 -1.53863,0.345963 -0.50984,0.345964 -0.50984,1.019682 0,0.619093 0.40969,0.97416 0.4188,0.345964 1.15625,0.345964 0.91953,0 1.54773,-0.65551 0.6282,-0.664614 0.6282,-1.656983 V 42.44737 Z m 4.98005,-1.229081 v 5.817649 h -3.28665 v -1.511314 q -0.65551,0.928639 -1.4749,1.356541 -0.81939,0.418798 -1.99384,0.418798 -1.58415,0 -2.57652,-0.919535 -0.98326,-0.928638 -0.98326,-2.403536 0,-1.793547 1.22908,-2.631143 1.23818,-0.837596 3.87843,-0.837596 h 1.92101 v -0.254921 q 0,-0.773865 -0.60999,-1.128933 -0.60999,-0.364172 -1.9028,-0.364172 -1.04699,0 -1.94832,0.209399 -0.90133,0.209399 -1.67519,0.628197 v -2.485475 q 1.04699,-0.254921 2.10309,-0.382381 1.0561,-0.136564 2.1122,-0.136564 2.7586,0 3.97858,1.092516 1.22908,1.083412 1.22908,3.53247 z"
         style="font-style:normal;font-variant:normal;font-weight:bold;font-stretch:normal;font-size:18.64561272px;line-height:125%;font-family:sans-serif;-inkscape-font-specification:'Sans Bold';text-align:start;writing-mode:lr-tb;text-anchor:start;fill:#ffffff;fill-opacity:1"
         id="path1139" />
      <path
         d="m 438.07029,36.839119 h 3.25934 v 10.196819 h -3.25934 z m 0,-3.969476 h 3.25934 v 2.658456 h -3.25934 z"
         style="font-style:normal;font-variant:normal;font-weight:bold;font-stretch:normal;font-size:18.64561272px;line-height:125%;font-family:sans-serif;-inkscape-font-specification:'Sans Bold';text-align:start;writing-mode:lr-tb;text-anchor:start;fill:#ffffff;fill-opacity:1"
         id="path1141" />
      <path
         d="m 454.73117,40.826804 v 6.209134 h -3.27755 v -1.010577 -3.741869 q 0,-1.320124 -0.0637,-1.820861 -0.0546,-0.500736 -0.2003,-0.737448 -0.19119,-0.318651 -0.51894,-0.491632 -0.32776,-0.182087 -0.74656,-0.182087 -1.01968,0 -1.60235,0.792075 -0.58268,0.78297 -0.58268,2.175928 v 5.016471 h -3.25934 V 36.839119 h 3.25934 v 1.493106 q 0.73745,-0.892222 1.56594,-1.31102 0.82849,-0.427902 1.82997,-0.427902 1.76623,0 2.67666,1.083412 0.91954,1.083412 0.91954,3.150089 z"
         style="font-style:normal;font-variant:normal;font-weight:bold;font-stretch:normal;font-size:18.64561272px;line-height:125%;font-family:sans-serif;-inkscape-font-specification:'Sans Bold';text-align:start;writing-mode:lr-tb;text-anchor:start;fill:#ffffff;fill-opacity:1"
         id="path1143" />
      <path
         d="m 457.772,36.839119 h 3.25934 V 47.035938 H 457.772 Z m 0,-3.969476 h 3.25934 v 2.658456 H 457.772 Z"
         style="font-style:normal;font-variant:normal;font-weight:bold;font-stretch:normal;font-size:18.64561272px;line-height:125%;font-family:sans-serif;-inkscape-font-specification:'Sans Bold';text-align:start;writing-mode:lr-tb;text-anchor:start;fill:#ffffff;fill-opacity:1"
         id="path1145" />
      <path
         d="m 474.43288,40.826804 v 6.209134 h -3.27755 v -1.010577 -3.741869 q 0,-1.320124 -0.0637,-1.820861 -0.0546,-0.500736 -0.20029,-0.737448 -0.1912,-0.318651 -0.51895,-0.491632 -0.32775,-0.182087 -0.74655,-0.182087 -1.01968,0 -1.60236,0.792075 -0.58268,0.78297 -0.58268,2.175928 v 5.016471 h -3.25934 V 36.839119 h 3.25934 v 1.493106 q 0.73745,-0.892222 1.56594,-1.31102 0.8285,-0.427902 1.82997,-0.427902 1.76623,0 2.67666,1.083412 0.91954,1.083412 0.91954,3.150089 z"
         style="font-style:normal;font-variant:normal;font-weight:bold;font-stretch:normal;font-size:18.64561272px;line-height:125%;font-family:sans-serif;-inkscape-font-specification:'Sans Bold';text-align:start;writing-mode:lr-tb;text-anchor:start;fill:#ffffff;fill-opacity:1"
         id="path1147" />
      <path
         d="m 484.41119,45.306121 q -0.67371,0.892221 -1.484,1.311019 -0.81028,0.418798 -1.87548,0.418798 -1.86639,0 -3.08636,-1.465793 -1.21998,-1.474897 -1.21998,-3.750972 0,-2.28518 1.21998,-3.741869 1.21997,-1.465793 3.08636,-1.465793 1.0652,0 1.87548,0.418798 0.81029,0.418798 1.484,1.320124 v -1.511314 h 3.27755 v 9.168033 q 0,2.458162 -1.55683,3.750973 -1.54773,1.301915 -4.49753,1.301915 -0.95595,0 -1.84817,-0.145669 -0.89222,-0.145668 -1.79355,-0.44611 V 47.92816 q 0.85581,0.491632 1.67519,0.728344 0.81939,0.245816 1.64788,0.245816 1.60236,0 2.34891,-0.701031 0.74655,-0.701031 0.74655,-2.194137 z m -2.14861,-6.3457 q -1.01058,0 -1.57505,0.746553 -0.56446,0.746553 -0.56446,2.112199 0,1.402062 0.54626,2.130407 0.54625,0.719239 1.59325,0.719239 1.01968,0 1.58415,-0.746552 0.56446,-0.746553 0.56446,-2.103094 0,-1.365646 -0.56446,-2.112199 -0.56447,-0.746553 -1.58415,-0.746553 z"
         style="font-style:normal;font-variant:normal;font-weight:bold;font-stretch:normal;font-size:18.64561272px;line-height:125%;font-family:sans-serif;-inkscape-font-specification:'Sans Bold';text-align:start;writing-mode:lr-tb;text-anchor:start;fill:#ffffff;fill-opacity:1"
         id="path1149" />
      <path
         d="m 414.47194,64.417065 q -0.96506,0.500736 -2.01205,0.755657 -1.047,0.25492 -2.18503,0.25492 -3.39591,0 -5.38065,-1.893695 -1.98474,-1.902799 -1.98474,-5.153035 0,-3.259341 1.98474,-5.153036 1.98474,-1.902799 5.38065,-1.902799 1.13803,0 2.18503,0.25492 1.04699,0.254921 2.01205,0.755658 v 2.813229 q -0.97416,-0.664614 -1.92101,-0.97416 -0.94685,-0.309547 -1.99384,-0.309547 -1.87549,0 -2.9498,1.201768 -1.0743,1.201768 -1.0743,3.313967 0,2.103094 1.0743,3.304862 1.07431,1.201768 2.9498,1.201768 1.04699,0 1.99384,-0.309546 0.94685,-0.309547 1.92101,-0.974161 z"
         style="font-style:normal;font-variant:normal;font-weight:bold;font-stretch:normal;font-size:18.64561272px;line-height:125%;font-family:sans-serif;-inkscape-font-specification:'Sans Bold';text-align:start;writing-mode:lr-tb;text-anchor:start;fill:#ffffff;fill-opacity:1"
         id="path1151" />
      <path
         d="m 427.41826,60.037895 v 0.928639 h -7.6203 q 0.11835,1.147142 0.82849,1.720713 0.71013,0.573571 1.98474,0.573571 1.02878,0 2.10309,-0.300442 1.08341,-0.309546 2.22145,-0.928639 v 2.512788 q -1.15625,0.437007 -2.31249,0.65551 -1.15625,0.227607 -2.3125,0.227607 -2.7677,0 -4.30633,-1.402062 -1.52952,-1.411167 -1.52952,-3.951268 0,-2.494579 1.50221,-3.923954 1.51131,-1.429376 4.15156,-1.429376 2.40353,0 3.84201,1.447584 1.44759,1.447584 1.44759,3.869329 z m -3.35039,-1.083412 q 0,-0.928639 -0.54625,-1.493106 -0.53716,-0.573571 -1.41117,-0.573571 -0.94685,0 -1.53863,0.537154 -0.59178,0.52805 -0.73745,1.529523 z"
         style="font-style:normal;font-variant:normal;font-weight:bold;font-stretch:normal;font-size:18.64561272px;line-height:125%;font-family:sans-serif;-inkscape-font-specification:'Sans Bold';text-align:start;writing-mode:lr-tb;text-anchor:start;fill:#ffffff;fill-opacity:1"
         id="path1153" />
      <path
         d="m 440.12787,58.954483 v 6.209135 h -3.27755 V 64.15304 60.411171 q 0,-1.320124 -0.0637,-1.82086 -0.0546,-0.500737 -0.2003,-0.737449 -0.19119,-0.31865 -0.51894,-0.491632 -0.32776,-0.182086 -0.74656,-0.182086 -1.01968,0 -1.60235,0.792074 -0.58268,0.78297 -0.58268,2.175929 v 5.016471 h -3.25934 v -10.19682 h 3.25934 v 1.493106 q 0.73745,-0.892222 1.56594,-1.31102 0.82849,-0.427902 1.82997,-0.427902 1.76623,0 2.67666,1.083412 0.91954,1.083412 0.91954,3.150089 z"
         style="font-style:normal;font-variant:normal;font-weight:bold;font-stretch:normal;font-size:18.64561272px;line-height:125%;font-family:sans-serif;-inkscape-font-specification:'Sans Bold';text-align:start;writing-mode:lr-tb;text-anchor:start;fill:#ffffff;fill-opacity:1"
         id="path1155" />
      <path
         d="m 446.72848,52.07163 v 2.895168 h 3.35949 V 57.2975 h -3.35949 v 4.324544 q 0,0.710135 0.28224,0.965056 0.28223,0.245816 1.11983,0.245816 h 1.67519 v 2.330702 h -2.79502 q -1.93012,0 -2.7404,-0.801179 -0.80118,-0.810283 -0.80118,-2.740395 V 57.2975 h -1.62056 v -2.330702 h 1.62056 V 52.07163 Z"
         style="font-style:normal;font-variant:normal;font-weight:bold;font-stretch:normal;font-size:18.64561272px;line-height:125%;font-family:sans-serif;-inkscape-font-specification:'Sans Bold';text-align:start;writing-mode:lr-tb;text-anchor:start;fill:#ffffff;fill-opacity:1"
         id="path1157" />
      <path
         d="m 462.26953,60.037895 v 0.928639 h -7.6203 q 0.11835,1.147142 0.82849,1.720713 0.71014,0.573571 1.98474,0.573571 1.02878,0 2.10309,-0.300442 1.08341,-0.309546 2.22145,-0.928639 v 2.512788 q -1.15624,0.437007 -2.31249,0.65551 -1.15625,0.227607 -2.31249,0.227607 -2.76771,0 -4.30634,-1.402062 -1.52952,-1.411167 -1.52952,-3.951268 0,-2.494579 1.50221,-3.923954 1.51131,-1.429376 4.15156,-1.429376 2.40354,0 3.84202,1.447584 1.44758,1.447584 1.44758,3.869329 z m -3.35038,-1.083412 q 0,-0.928639 -0.54626,-1.493106 -0.53716,-0.573571 -1.41117,-0.573571 -0.94685,0 -1.53863,0.537154 -0.59178,0.52805 -0.73744,1.529523 z"
         style="font-style:normal;font-variant:normal;font-weight:bold;font-stretch:normal;font-size:18.64561272px;line-height:125%;font-family:sans-serif;-inkscape-font-specification:'Sans Bold';text-align:start;writing-mode:lr-tb;text-anchor:start;fill:#ffffff;fill-opacity:1"
         id="path1159" />
      <path
         d="m 472.30247,57.743611 q -0.4279,-0.200295 -0.8558,-0.291338 -0.4188,-0.100147 -0.8467,-0.100147 -1.2564,0 -1.93922,0.810283 -0.67372,0.801178 -0.67372,2.303388 v 4.697821 h -3.25934 v -10.19682 h 3.25934 v 1.675192 q 0.6282,-1.001473 1.43848,-1.456689 0.81939,-0.464319 1.95743,-0.464319 0.16387,0 0.35506,0.01821 0.19119,0.0091 0.55537,0.05463 z"
         style="font-style:normal;font-variant:normal;font-weight:bold;font-stretch:normal;font-size:18.64561272px;line-height:125%;font-family:sans-serif;-inkscape-font-specification:'Sans Bold';text-align:start;writing-mode:lr-tb;text-anchor:start;fill:#ffffff;fill-opacity:1"
         id="path1161" />
    </g>
    <g
       aria-label="A C L S   O n l i n e   S i n c e   1 9 9 8"
       style="font-style:normal;font-variant:normal;font-weight:normal;font-stretch:normal;line-height:0%;font-family:sans-serif;-inkscape-font-specification:Sans;text-align:start;letter-spacing:0px;word-spacing:0px;writing-mode:lr-tb;text-anchor:start;fill:#6e6e6e;fill-opacity:1;stroke:none"
       id="text4168">
      <path
         d="m 265.28196,84.803899 -1.35738,3.680772 h 2.71971 z m -0.56475,-0.985832 h 1.13445 l 2.81879,7.39622 h -1.04033 l -0.67373,-1.897356 h -3.334 l -0.67373,1.897356 h -1.05519 z"
         style="font-style:normal;font-variant:normal;font-weight:normal;font-stretch:normal;font-size:10.14565182px;line-height:125%;font-family:sans-serif;-inkscape-font-specification:Sans;text-align:start;writing-mode:lr-tb;text-anchor:start;fill:#6e6e6e;fill-opacity:1"
         id="path1164" />
      <path
         d="m 278.51391,84.387769 v 1.055188 q -0.5053,-0.470624 -1.07996,-0.703459 -0.5697,-0.232835 -1.21371,-0.232835 -1.2682,0 -1.94194,0.777768 -0.67373,0.772813 -0.67373,2.239177 0,1.46141 0.67373,2.239177 0.67374,0.772813 1.94194,0.772813 0.64401,0 1.21371,-0.232835 0.57466,-0.232834 1.07996,-0.703458 v 1.04528 q -0.52511,0.356683 -1.11463,0.535024 -0.58457,0.178342 -1.23849,0.178342 -1.67938,0 -2.64539,-1.025464 -0.96602,-1.030418 -0.96602,-2.808879 0,-1.783416 0.96602,-2.808879 0.96601,-1.030418 2.64539,-1.030418 0.66383,0 1.2484,0.178341 0.58951,0.173388 1.10472,0.525117 z"
         style="font-style:normal;font-variant:normal;font-weight:normal;font-stretch:normal;font-size:10.14565182px;line-height:125%;font-family:sans-serif;-inkscape-font-specification:Sans;text-align:start;writing-mode:lr-tb;text-anchor:start;fill:#6e6e6e;fill-opacity:1"
         id="path1166" />
      <path
         d="m 283.29941,83.818067 h 1.00069 v 6.554051 h 3.60151 v 0.842169 h -4.6022 z"
         style="font-style:normal;font-variant:normal;font-weight:normal;font-stretch:normal;font-size:10.14565182px;line-height:125%;font-family:sans-serif;-inkscape-font-specification:Sans;text-align:start;writing-mode:lr-tb;text-anchor:start;fill:#6e6e6e;fill-opacity:1"
         id="path1168" />
      <path
         d="m 296.61062,84.06081 v 0.975924 q -0.5697,-0.272466 -1.075,-0.406222 -0.5053,-0.133756 -0.97592,-0.133756 -0.8174,0 -1.26326,0.317051 -0.4409,0.317052 -0.4409,0.901616 0,0.490439 0.29229,0.74309 0.29723,0.247696 1.11958,0.401268 l 0.60438,0.123848 q 1.11959,0.213019 1.64966,0.752998 0.53503,0.535024 0.53503,1.43664 0,1.075003 -0.72328,1.629843 -0.71832,0.554841 -2.11037,0.554841 -0.52512,0 -1.11959,-0.118895 -0.58952,-0.118894 -1.22362,-0.351729 V 89.85691 q 0.60933,0.341821 1.1939,0.515208 0.58456,0.173388 1.14931,0.173388 0.85703,0 1.3227,-0.336867 0.46567,-0.336868 0.46567,-0.961063 0,-0.544932 -0.33687,-0.852076 -0.33191,-0.307144 -1.09482,-0.460716 l -0.60933,-0.118894 q -1.11959,-0.222927 -1.61994,-0.698505 -0.50035,-0.475577 -0.50035,-1.322699 0,-0.980879 0.6886,-1.545627 0.69355,-0.564748 1.90727,-0.564748 0.52016,0 1.06014,0.09413 0.53997,0.09412 1.10472,0.282374 z"
         style="font-style:normal;font-variant:normal;font-weight:normal;font-stretch:normal;font-size:10.14565182px;line-height:125%;font-family:sans-serif;-inkscape-font-specification:Sans;text-align:start;writing-mode:lr-tb;text-anchor:start;fill:#6e6e6e;fill-opacity:1"
         id="path1170" />
      <path
         d="m 311.30894,84.496756 q -1.08987,0 -1.73388,0.812444 -0.63906,0.812445 -0.63906,2.214408 0,1.397008 0.63906,2.209453 0.64401,0.812445 1.73388,0.812445 1.08986,0 1.72397,-0.812445 0.63905,-0.812445 0.63905,-2.209453 0,-1.401963 -0.63905,-2.214408 -0.63411,-0.812444 -1.72397,-0.812444 z m 0,-0.812445 q 1.55553,0 2.48687,1.045279 0.93134,1.040326 0.93134,2.794018 0,1.748738 -0.93134,2.794017 -0.93134,1.040326 -2.48687,1.040326 -1.56049,0 -2.49678,-1.040326 -0.93134,-1.040325 -0.93134,-2.794017 0,-1.753692 0.93134,-2.794018 0.93629,-1.045279 2.49678,-1.045279 z"
         style="font-style:normal;font-variant:normal;font-weight:normal;font-stretch:normal;font-size:10.14565182px;line-height:125%;font-family:sans-serif;-inkscape-font-specification:Sans;text-align:start;writing-mode:lr-tb;text-anchor:start;fill:#6e6e6e;fill-opacity:1"
         id="path1172" />
      <path
         d="m 324.09504,87.865429 v 3.348858 h -0.91153 v -3.319134 q 0,-0.787675 -0.30714,-1.179036 -0.30714,-0.391361 -0.92143,-0.391361 -0.73814,0 -1.16418,0.470624 -0.42603,0.470623 -0.42603,1.283068 v 3.135839 h -0.91648 v -5.548404 h 0.91648 v 0.861985 q 0.32696,-0.500348 0.76786,-0.748044 0.44585,-0.247697 1.02546,-0.247697 0.95611,0 1.44655,0.594472 0.49044,0.589518 0.49044,1.73883 z"
         style="font-style:normal;font-variant:normal;font-weight:normal;font-stretch:normal;font-size:10.14565182px;line-height:125%;font-family:sans-serif;-inkscape-font-specification:Sans;text-align:start;writing-mode:lr-tb;text-anchor:start;fill:#6e6e6e;fill-opacity:1"
         id="path1174" />
      <path
         d="m 329.153,83.505969 h 0.91152 v 7.708318 H 329.153 Z"
         style="font-style:normal;font-variant:normal;font-weight:normal;font-stretch:normal;font-size:10.14565182px;line-height:125%;font-family:sans-serif;-inkscape-font-specification:Sans;text-align:start;writing-mode:lr-tb;text-anchor:start;fill:#6e6e6e;fill-opacity:1"
         id="path1176" />
      <path
         d="m 335.19679,85.665883 h 0.91153 v 5.548404 h -0.91153 z m 0,-2.159914 h 0.91153 v 1.154266 h -0.91153 z"
         style="font-style:normal;font-variant:normal;font-weight:normal;font-stretch:normal;font-size:10.14565182px;line-height:125%;font-family:sans-serif;-inkscape-font-specification:Sans;text-align:start;writing-mode:lr-tb;text-anchor:start;fill:#6e6e6e;fill-opacity:1"
         id="path1178" />
      <path
         d="m 345.8527,87.865429 v 3.348858 h -0.91152 v -3.319134 q 0,-0.787675 -0.30714,-1.179036 -0.30715,-0.391361 -0.92143,-0.391361 -0.73814,0 -1.16418,0.470624 -0.42604,0.470623 -0.42604,1.283068 v 3.135839 h -0.91647 v -5.548404 h 0.91647 v 0.861985 q 0.32696,-0.500348 0.76786,-0.748044 0.44586,-0.247697 1.02547,-0.247697 0.95611,0 1.44654,0.594472 0.49044,0.589518 0.49044,1.73883 z"
         style="font-style:normal;font-variant:normal;font-weight:normal;font-stretch:normal;font-size:10.14565182px;line-height:125%;font-family:sans-serif;-inkscape-font-specification:Sans;text-align:start;writing-mode:lr-tb;text-anchor:start;fill:#6e6e6e;fill-opacity:1"
         id="path1180" />
      <path
         d="m 355.65653,88.212204 v 0.445854 h -4.19102 q 0.0595,0.941247 0.56475,1.43664 0.51025,0.490439 1.41682,0.490439 0.52512,0 1.01556,-0.128802 0.49539,-0.128802 0.98088,-0.386406 v 0.861984 q -0.49044,0.208065 -1.00565,0.317051 -0.51521,0.108987 -1.04528,0.108987 -1.32766,0 -2.10542,-0.772814 -0.77282,-0.772813 -0.77282,-2.090559 0,-1.362331 0.73319,-2.159914 0.73813,-0.802537 1.98652,-0.802537 1.11959,0 1.76856,0.723274 0.65391,0.71832 0.65391,1.956803 z m -0.91152,-0.267512 q -0.01,-0.748044 -0.42108,-1.193898 -0.40623,-0.445853 -1.07996,-0.445853 -0.76291,0 -1.22362,0.430992 -0.45576,0.430992 -0.52512,1.213713 z"
         style="font-style:normal;font-variant:normal;font-weight:normal;font-stretch:normal;font-size:10.14565182px;line-height:125%;font-family:sans-serif;-inkscape-font-specification:Sans;text-align:start;writing-mode:lr-tb;text-anchor:start;fill:#6e6e6e;fill-opacity:1"
         id="path1182" />
      <path
         d="m 371.31591,84.06081 v 0.975924 q -0.5697,-0.272466 -1.075,-0.406222 -0.5053,-0.133756 -0.97592,-0.133756 -0.8174,0 -1.26326,0.317051 -0.4409,0.317052 -0.4409,0.901616 0,0.490439 0.29229,0.74309 0.29723,0.247696 1.11959,0.401268 l 0.60437,0.123848 q 1.11959,0.213019 1.64966,0.752998 0.53503,0.535024 0.53503,1.43664 0,1.075003 -0.72328,1.629843 -0.71832,0.554841 -2.11037,0.554841 -0.52512,0 -1.11959,-0.118895 -0.58952,-0.118894 -1.22362,-0.351729 V 89.85691 q 0.60933,0.341821 1.1939,0.515208 0.58456,0.173388 1.14931,0.173388 0.85703,0 1.3227,-0.336867 0.46567,-0.336868 0.46567,-0.961063 0,-0.544932 -0.33687,-0.852076 -0.33191,-0.307144 -1.09482,-0.460716 l -0.60933,-0.118894 q -1.11959,-0.222927 -1.61994,-0.698505 -0.50034,-0.475577 -0.50034,-1.322699 0,-0.980879 0.68859,-1.545627 0.69355,-0.564748 1.90727,-0.564748 0.52016,0 1.06014,0.09413 0.53998,0.09412 1.10472,0.282374 z"
         style="font-style:normal;font-variant:normal;font-weight:normal;font-stretch:normal;font-size:10.14565182px;line-height:125%;font-family:sans-serif;-inkscape-font-specification:Sans;text-align:start;writing-mode:lr-tb;text-anchor:start;fill:#6e6e6e;fill-opacity:1"
         id="path1184" />
      <path
         d="m 376.51259,85.665883 h 0.91152 v 5.548404 h -0.91152 z m 0,-2.159914 h 0.91152 v 1.154266 h -0.91152 z"
         style="font-style:normal;font-variant:normal;font-weight:normal;font-stretch:normal;font-size:10.14565182px;line-height:125%;font-family:sans-serif;-inkscape-font-specification:Sans;text-align:start;writing-mode:lr-tb;text-anchor:start;fill:#6e6e6e;fill-opacity:1"
         id="path1186" />
      <path
         d="m 387.16849,87.865429 v 3.348858 h -0.91152 v -3.319134 q 0,-0.787675 -0.30714,-1.179036 -0.30715,-0.391361 -0.92144,-0.391361 -0.73813,0 -1.16417,0.470624 -0.42604,0.470623 -0.42604,1.283068 v 3.135839 h -0.91648 v -5.548404 h 0.91648 v 0.861985 q 0.32696,-0.500348 0.76786,-0.748044 0.44585,-0.247697 1.02546,-0.247697 0.95611,0 1.44655,0.594472 0.49044,0.589518 0.49044,1.73883 z"
         style="font-style:normal;font-variant:normal;font-weight:normal;font-stretch:normal;font-size:10.14565182px;line-height:125%;font-family:sans-serif;-inkscape-font-specification:Sans;text-align:start;writing-mode:lr-tb;text-anchor:start;fill:#6e6e6e;fill-opacity:1"
         id="path1188" />
      <path
         d="m 396.21933,85.878903 v 0.852076 q -0.3864,-0.213019 -0.77776,-0.317052 -0.38641,-0.108986 -0.78273,-0.108986 -0.88675,0 -1.37719,0.564748 -0.49044,0.559794 -0.49044,1.57535 0,1.015556 0.49044,1.580304 0.49044,0.559794 1.37719,0.559794 0.39632,0 0.78273,-0.104032 0.39136,-0.108987 0.77776,-0.322006 v 0.842169 q -0.38145,0.178341 -0.79263,0.267512 -0.40622,0.08917 -0.86693,0.08917 -1.25335,0 -1.99148,-0.787675 -0.73814,-0.787675 -0.73814,-2.125237 0,-1.357377 0.74309,-2.135144 0.74804,-0.777768 2.04597,-0.777768 0.42109,0 0.82236,0.08917 0.40126,0.08422 0.77776,0.257605 z"
         style="font-style:normal;font-variant:normal;font-weight:normal;font-stretch:normal;font-size:10.14565182px;line-height:125%;font-family:sans-serif;-inkscape-font-specification:Sans;text-align:start;writing-mode:lr-tb;text-anchor:start;fill:#6e6e6e;fill-opacity:1"
         id="path1190" />
      <path
         d="m 405.79032,88.212204 v 0.445854 h -4.19102 q 0.0594,0.941247 0.56475,1.43664 0.51025,0.490439 1.41682,0.490439 0.52512,0 1.01556,-0.128802 0.49539,-0.128802 0.98087,-0.386406 v 0.861984 q -0.49043,0.208065 -1.00564,0.317051 -0.51521,0.108987 -1.04528,0.108987 -1.32766,0 -2.10542,-0.772814 -0.77282,-0.772813 -0.77282,-2.090559 0,-1.362331 0.73318,-2.159914 0.73814,-0.802537 1.98653,-0.802537 1.11959,0 1.76855,0.723274 0.65392,0.71832 0.65392,1.956803 z m -0.91152,-0.267512 q -0.01,-0.748044 -0.42108,-1.193898 -0.40623,-0.445853 -1.07996,-0.445853 -0.76291,0 -1.22362,0.430992 -0.45576,0.430992 -0.52512,1.213713 z"
         style="font-style:normal;font-variant:normal;font-weight:normal;font-stretch:normal;font-size:10.14565182px;line-height:125%;font-family:sans-serif;-inkscape-font-specification:Sans;text-align:start;writing-mode:lr-tb;text-anchor:start;fill:#6e6e6e;fill-opacity:1"
         id="path1192" />
      <path
         d="m 417.27849,90.372118 h 1.63479 V 84.72959 l -1.77846,0.356683 V 84.17475 l 1.76856,-0.356683 h 1.00069 v 6.554051 h 1.6348 v 0.842169 h -4.26038 z"
         style="font-style:normal;font-variant:normal;font-weight:normal;font-stretch:normal;font-size:10.14565182px;line-height:125%;font-family:sans-serif;-inkscape-font-specification:Sans;text-align:start;writing-mode:lr-tb;text-anchor:start;fill:#6e6e6e;fill-opacity:1"
         id="path1194" />
      <path
         d="m 426.82472,91.060715 v -0.911523 q 0.3765,0.178341 0.7629,0.272466 0.38641,0.09412 0.75795,0.09412 0.99079,0 1.51095,-0.663826 0.52512,-0.668781 0.59943,-2.026158 -0.28733,0.426038 -0.72823,0.653919 -0.4409,0.22788 -0.97592,0.22788 -1.10968,0 -1.75865,-0.66878 -0.64401,-0.673735 -0.64401,-1.837909 0,-1.139404 0.67373,-1.828001 0.67374,-0.688596 1.79333,-0.688596 1.28307,0 1.9568,0.985832 0.67869,0.980879 0.67869,2.853465 0,1.748738 -0.83226,2.794017 -0.82731,1.040326 -2.22927,1.040326 -0.3765,0 -0.76291,-0.07431 -0.3864,-0.07431 -0.80253,-0.222927 z m 1.99148,-3.135839 q 0.67373,0 1.06509,-0.460715 0.39632,-0.460716 0.39632,-1.263253 0,-0.797583 -0.39632,-1.258299 -0.39136,-0.465669 -1.06509,-0.465669 -0.67374,0 -1.07005,0.465669 -0.39136,0.460716 -0.39136,1.258299 0,0.802537 0.39136,1.263253 0.39631,0.460715 1.07005,0.460715 z"
         style="font-style:normal;font-variant:normal;font-weight:normal;font-stretch:normal;font-size:10.14565182px;line-height:125%;font-family:sans-serif;-inkscape-font-specification:Sans;text-align:start;writing-mode:lr-tb;text-anchor:start;fill:#6e6e6e;fill-opacity:1"
         id="path1196" />
      <path
         d="m 436.5146,91.060715 v -0.911523 q 0.3765,0.178341 0.7629,0.272466 0.38641,0.09412 0.75795,0.09412 0.99079,0 1.51095,-0.663826 0.52512,-0.668781 0.59943,-2.026158 -0.28733,0.426038 -0.72823,0.653919 -0.4409,0.22788 -0.97592,0.22788 -1.10968,0 -1.75865,-0.66878 -0.64401,-0.673735 -0.64401,-1.837909 0,-1.139404 0.67374,-1.828001 0.67373,-0.688596 1.79332,-0.688596 1.28307,0 1.9568,0.985832 0.67869,0.980879 0.67869,2.853465 0,1.748738 -0.83226,2.794017 -0.82731,1.040326 -2.22927,1.040326 -0.3765,0 -0.76291,-0.07431 -0.3864,-0.07431 -0.80253,-0.222927 z m 1.99148,-3.135839 q 0.67373,0 1.06509,-0.460715 0.39632,-0.460716 0.39632,-1.263253 0,-0.797583 -0.39632,-1.258299 -0.39136,-0.465669 -1.06509,-0.465669 -0.67374,0 -1.07005,0.465669 -0.39136,0.460716 -0.39136,1.258299 0,0.802537 0.39136,1.263253 0.39631,0.460715 1.07005,0.460715 z"
         style="font-style:normal;font-variant:normal;font-weight:normal;font-stretch:normal;font-size:10.14565182px;line-height:125%;font-family:sans-serif;-inkscape-font-specification:Sans;text-align:start;writing-mode:lr-tb;text-anchor:start;fill:#6e6e6e;fill-opacity:1"
         id="path1198" />
      <path
         d="m 448.31487,87.701949 q -0.71337,0 -1.12454,0.381453 -0.40623,0.381453 -0.40623,1.050234 0,0.66878 0.40623,1.050233 0.41117,0.381453 1.12454,0.381453 0.71336,0 1.12454,-0.381453 0.41118,-0.386407 0.41118,-1.050233 0,-0.668781 -0.41118,-1.050234 -0.40622,-0.381453 -1.12454,-0.381453 z m -1.0007,-0.426038 q -0.64401,-0.158526 -1.00564,-0.599425 -0.35669,-0.4409 -0.35669,-1.075004 0,-0.886753 0.62915,-1.401962 0.63411,-0.515209 1.73388,-0.515209 1.10473,0 1.73387,0.515209 0.62915,0.515209 0.62915,1.401962 0,0.634104 -0.36163,1.075004 -0.35669,0.440899 -0.99574,0.599425 0.72327,0.168434 1.12454,0.658873 0.40622,0.490439 0.40622,1.198852 0,1.075003 -0.65887,1.649659 -0.65392,0.574656 -1.87754,0.574656 -1.22362,0 -1.8825,-0.574656 -0.65391,-0.574656 -0.65391,-1.649659 0,-0.708413 0.40622,-1.198852 0.40622,-0.490439 1.12949,-0.658873 z m -0.36659,-1.580304 q 0,0.574656 0.35669,0.896662 0.36163,0.322005 1.0106,0.322005 0.64401,0 1.00565,-0.322005 0.36659,-0.322006 0.36659,-0.896662 0,-0.574656 -0.36659,-0.896662 -0.36164,-0.322005 -1.00565,-0.322005 -0.64897,0 -1.0106,0.322005 -0.35669,0.322006 -0.35669,0.896662 z"
         style="font-style:normal;font-variant:normal;font-weight:normal;font-stretch:normal;font-size:10.14565182px;line-height:125%;font-family:sans-serif;-inkscape-font-specification:Sans;text-align:start;writing-mode:lr-tb;text-anchor:start;fill:#6e6e6e;fill-opacity:1"
         id="path1200" />
    </g>
    <g
       aria-label="®"
       style="font-style:normal;font-weight:normal;font-size:15.00407314px;line-height:0%;font-family:sans-serif;letter-spacing:0px;word-spacing:0px;fill:#2c5a8e;fill-opacity:1;stroke:none;stroke-width:1.25033939"
       id="text61">
      <path
         d="m 468.26157,36.109905 q -0.66266,0 -1.23221,0.240966 -0.56956,0.23549 -1.04602,0.711947 -0.47645,0.476456 -0.71742,1.046013 -0.23549,0.564081 -0.23549,1.232215 0,0.662657 0.23549,1.232214 0.24097,0.564081 0.71742,1.040537 0.47098,0.47098 1.04054,0.70647 0.57503,0.23549 1.23769,0.23549 0.67361,0 1.23769,-0.230013 0.56408,-0.23549 1.04054,-0.711947 0.47646,-0.476456 0.71195,-1.040537 0.24096,-0.569557 0.24096,-1.232214 0,-0.668134 -0.24096,-1.232215 -0.23549,-0.569557 -0.71195,-1.046013 -0.48193,-0.481933 -1.05149,-0.717423 -0.56408,-0.23549 -1.22674,-0.23549 z m -0.31216,1.61557 h -0.19168 v 1.133638 h 0.19168 q 0.42717,0 0.64075,-0.142389 0.21906,-0.147866 0.21906,-0.432645 0,-0.284778 -0.21358,-0.421691 -0.20811,-0.136913 -0.64623,-0.136913 z m 0.20263,-0.755758 q 0.96387,0 1.44032,0.328591 0.47646,0.323114 0.47646,0.985771 0,0.47098 -0.29026,0.777665 -0.28477,0.306684 -0.81052,0.399785 0.22454,0.120483 0.41622,0.339544 0.19715,0.21906 0.35597,0.536697 l 0.60789,1.210309 H 469.094 l -0.58599,-1.166496 q -0.2081,-0.427168 -0.36692,-0.602416 -0.15882,-0.180725 -0.31764,-0.180725 h -0.0657 v 1.949637 h -1.16649 v -4.578362 z m 0.10953,-1.703194 q 0.83243,0 1.54985,0.301208 0.7229,0.301208 1.31984,0.898147 0.59694,0.59694 0.89267,1.314362 0.29574,0.717423 0.29574,1.560806 0,0.832429 -0.29574,1.549852 -0.29573,0.711946 -0.89267,1.308886 -0.59694,0.596939 -1.31984,0.898147 -0.71742,0.301208 -1.54985,0.301208 -0.83243,0 -1.55533,-0.301208 -0.71742,-0.301208 -1.31436,-0.898147 -0.59694,-0.59694 -0.89267,-1.308886 -0.29573,-0.717423 -0.29573,-1.549852 0,-0.843383 0.29573,-1.560806 0.29573,-0.717422 0.89267,-1.314362 0.59694,-0.596939 1.31436,-0.898147 0.7229,-0.301208 1.55533,-0.301208 z"
         style="font-weight:bold;font-size:11.21589184px;line-height:1.25;font-family:sans-serif;-inkscape-font-specification:'Sans Bold';fill:#2c5a8e;fill-opacity:1;stroke-width:1.25033939"
         id="path1203" />
    </g>
  </g>
</svg>
